name analog
datacolumns 19
datarows 40
range 0.5555 0.5750000000000001
endheader
time	ground_force_vx	ground_force_vy	ground_force_vz	ground_force_px	ground_force_py	ground_force_pz	l_ground_force_vx	l_ground_force_vy	l_ground_force_vz	l_ground_force_px	l_ground_force_py	l_ground_force_pz	ground_torque_x	ground_torque_y	ground_torque_z	l_ground_torque_x	l_ground_torque_y	l_ground_torque_z
0.5555	-0.0	-0.0	-0.0	-0.0	-0.0	-0.0	6.326934337615967	1.738089919090271	-523.0291748046875	-0.0	-0.0	-0.0	-0.0	-0.0	-0.0	150169.328125	-10085.9736328125	605.3051147460938
0.556	-0.0	-0.0	-0.0	-0.0	-0.0	-0.0	6.890760898590088	1.1273738145828247	-509.3299865722656	-0.0	-0.0	-0.0	-0.0	-0.0	-0.0	146026.90625	-9488.37109375	822.6953735351562
0.5565	-0.0	-0.0	-0.0	-0.0	-0.0	-0.0	7.008152008056641	0.3532867431640625	-493.927978515625	-0.0	-0.0	-0.0	-0.0	-0.0	-0.0	141511.8125	-8871.7099609375	1013.6512451171876
0.557	-0.0	-0.0	-0.0	-0.0	-0.0	-0.0	7.216080665588379	-0.166518896818161	-477.5193481445313	-0.0	-0.0	-0.0	-0.0	-0.0	-0.0	137385.296875	-8477.3037109375	1435.7645263671875
0.5575	-0.0	-0.0	-0.0	-0.0	-0.0	-0.0	7.678496837615967	-0.8340641856193542	-463.4790344238281	-0.0	-0.0	-0.0	-0.0	-0.0	-0.0	133348.625	-8274.068359375	1583.8924560546875
0.558	-0.0	-0.0	-0.0	-0.0	-0.0	-0.0	8.703530311584473	-1.3542413711547852	-450.71588134765625	-0.0	-0.0	-0.0	-0.0	-0.0	-0.0	129612.9921875	-7923.244140625	1868.102294921875
0.5585	-0.0	-0.0	-0.0	-0.0	-0.0	-0.0	9.294642448425291	-1.4917651414871216	-439.9310302734375	-0.0	-0.0	-0.0	-0.0	-0.0	-0.0	125923.7265625	-7427.9609375	2135.358154296875
0.559	-0.0	-0.0	-0.0	-0.0	-0.0	-0.0	10.043501853942873	-1.873854637145996	-428.3712768554688	-0.0	-0.0	-0.0	-0.0	-0.0	-0.0	123163.6015625	-7292.84619140625	2528.110595703125
0.5595	-0.0	-0.0	-0.0	-0.0	-0.0	-0.0	10.171585083007812	-1.7664337158203125	-419.99212646484375	-0.0	-0.0	-0.0	-0.0	-0.0	-0.0	120445.0546875	-7384.6259765625	2590.72265625
0.56	-0.0	-0.0	-0.0	-0.0	-0.0	-0.0	10.253148078918455	-1.736199975013733	-412.8167419433594	-0.0	-0.0	-0.0	-0.0	-0.0	-0.0	118150.3125	-7510.5595703125	2653.1875
0.5605	-0.0	-0.0	-0.0	-0.0	-0.0	-0.0	10.33022117614746	-1.3552898168563845	-406.8338623046875	-0.0	-0.0	-0.0	-0.0	-0.0	-0.0	116672.859375	-7475.57275390625	2686.998046875
0.561	-0.0	-0.0	-0.0	-0.0	-0.0	-0.0	10.724961280822754	-0.5082803964614868	-401.3320007324219	-0.0	-0.0	-0.0	-0.0	-0.0	-0.0	115147.0	-7617.71435546875	2706.926025390625
0.5615	-0.0	-0.0	-0.0	-0.0	-0.0	-0.0	11.35498046875	1.037859559059143	-397.8757934570313	-0.0	-0.0	-0.0	-0.0	-0.0	-0.0	114068.84375	-7938.71923828125	2872.407958984375
0.562	-0.0	-0.0	-0.0	-0.0	-0.0	-0.0	12.13089370727539	2.4506218433380127	-393.2824401855469	-0.0	-0.0	-0.0	-0.0	-0.0	-0.0	113238.09375	-8365.6279296875	3021.612548828125
0.5625	-0.0	-0.0	-0.0	-0.0	-0.0	-0.0	13.057729721069336	3.983060359954834	-393.6514892578125	-0.0	-0.0	-0.0	-0.0	-0.0	-0.0	113196.1484375	-8607.529296875	3084.8515625
0.5630000000000001	-0.0	-0.0	-0.0	-0.0	-0.0	-0.0	12.983428001403809	5.164811134338379	-394.2254943847656	-0.0	-0.0	-0.0	-0.0	-0.0	-0.0	113135.578125	-8939.6689453125	3114.685302734375
0.5635	-0.0	-0.0	-0.0	-0.0	-0.0	-0.0	12.960116386413574	5.837536334991455	-396.0632629394531	-0.0	-0.0	-0.0	-0.0	-0.0	-0.0	113802.3671875	-9114.80078125	3006.768310546875
0.5640000000000001	-0.0	-0.0	-0.0	-0.0	-0.0	-0.0	13.52429485321045	6.7443623542785645	-398.921875	-0.0	-0.0	-0.0	-0.0	-0.0	-0.0	114588.6875	-9595.4404296875	3217.7900390625
0.5645	-0.0	-0.0	-0.0	-0.0	-0.0	-0.0	14.451811790466309	7.1781907081604	-405.9679260253906	-0.0	-0.0	-0.0	-0.0	-0.0	-0.0	116093.9609375	-10007.6904296875	3275.14599609375
0.5650000000000001	-0.0	-0.0	-0.0	-0.0	-0.0	-0.0	14.524852752685549	7.210023403167725	-411.39398193359375	-0.0	-0.0	-0.0	-0.0	-0.0	-0.0	118238.46875	-10647.306640625	3428.813232421875
0.5655	-0.0	-0.0	-0.0	-0.0	-0.0	-0.0	14.444299697875977	6.472280979156494	-421.4566040039063	-0.0	-0.0	-0.0	-0.0	-0.0	-0.0	120800.7265625	-11109.35546875	3256.227294921875
0.5660000000000001	-0.0	-0.0	-0.0	-0.0	-0.0	-0.0	13.557500839233398	5.51630973815918	-433.2971801757813	-0.0	-0.0	-0.0	-0.0	-0.0	-0.0	123796.65625	-11821.8154296875	2969.798583984375
0.5665	-0.0	-0.0	-0.0	-0.0	-0.0	-0.0	12.999878883361816	4.463977813720703	-446.62396240234375	-0.0	-0.0	-0.0	-0.0	-0.0	-0.0	127417.890625	-12331.4375	2702.28564453125
0.5670000000000001	-0.0	-0.0	-0.0	-0.0	-0.0	-0.0	12.541561126708984	3.702199697494507	-460.9957275390625	-0.0	-0.0	-0.0	-0.0	-0.0	-0.0	131260.546875	-13075.52734375	2595.542724609375
0.5675	-0.0	-0.0	-0.0	-0.0	-0.0	-0.0	12.378755569458008	2.174638271331787	-475.2803955078125	-0.0	-0.0	-0.0	-0.0	-0.0	-0.0	135137.21875	-14167.0498046875	2428.1796875
0.5680000000000001	-0.0	-0.0	-0.0	-0.0	-0.0	-0.0	11.811044692993164	1.1004981994628906	-492.1709899902344	-0.0	-0.0	-0.0	-0.0	-0.0	-0.0	139763.578125	-14753.873046875	2238.21533203125
0.5685	-0.0	-0.0	-0.0	-0.0	-0.0	-0.0	10.720160484313965	0.0883216857910156	-510.03131103515625	-0.0	-0.0	-0.0	-0.0	-0.0	-0.0	145022.046875	-15655.423828125	1782.8597412109375
0.5690000000000001	-0.0	-0.0	-0.0	-0.0	-0.0	-0.0	9.21914005279541	-0.6590369343757629	-527.5414428710938	-0.0	-0.0	-0.0	-0.0	-0.0	-0.0	149701.640625	-16512.583984375	1339.00341796875
0.5695	-0.0	-0.0	-0.0	-0.0	-0.0	-0.0	7.977315425872803	-0.6182518005371094	-546.662353515625	-0.0	-0.0	-0.0	-0.0	-0.0	-0.0	154755.421875	-17198.201171875	783.8243408203125
0.5700000000000001	-0.0	-0.0	-0.0	-0.0	-0.0	-0.0	6.871835231781006	-0.1142109632492065	-561.6231689453125	-0.0	-0.0	-0.0	-0.0	-0.0	-0.0	159922.546875	-18142.126953125	360.8266906738281
0.5705	-0.0	-0.0	-0.0	-0.0	-0.0	-0.0	6.722893714904785	0.1766433715820312	-581.5747680664062	-0.0	-0.0	-0.0	-0.0	-0.0	-0.0	164937.578125	-18646.193359375	-22.706037521362305
0.5710000000000001	-0.0	-0.0	-0.0	-0.0	-0.0	-0.0	6.6058430671691895	0.9304744005203248	-598.8195190429688	-0.0	-0.0	-0.0	-0.0	-0.0	-0.0	170040.21875	-19668.390625	-200.6337127685547
0.5715	-0.0	-0.0	-0.0	-0.0	-0.0	-0.0	6.795517921447754	1.6659752130508425	-617.2334594726562	-0.0	-0.0	-0.0	-0.0	-0.0	-0.0	175112.40625	-20463.638671875	-303.1590270996094
0.5720000000000001	-0.0	-0.0	-0.0	-0.0	-0.0	-0.0	7.102817058563232	2.2258260250091557	-635.1068115234375	-0.0	-0.0	-0.0	-0.0	-0.0	-0.0	180278.3125	-21109.228515625	-500.6628723144531
0.5725	-0.0	-0.0	-0.0	-0.0	-0.0	-0.0	6.706363677978516	2.77347183227539	-649.6079711914062	-0.0	-0.0	-0.0	-0.0	-0.0	-0.0	184408.28125	-21627.787109375	-666.8152465820312
0.5730000000000001	-0.0	-0.0	-0.0	-0.0	-0.0	-0.0	5.2641119956970215	3.091259002685547	-663.0389404296875	-0.0	-0.0	-0.0	-0.0	-0.0	-0.0	188299.21875	-21796.96484375	-1194.01953125
0.5735	-0.0	-0.0	-0.0	-0.0	-0.0	-0.0	3.678731918334961	2.7324650287628174	-674.0916137695312	-0.0	-0.0	-0.0	-0.0	-0.0	-0.0	191412.9375	-21812.625	-1558.6761474609375
0.5740000000000001	-0.0	-0.0	-0.0	-0.0	-0.0	-0.0	2.572612762451172	2.5305516719818115	-683.4960327148438	-0.0	-0.0	-0.0	-0.0	-0.0	-0.0	193695.421875	-21984.37109375	-1967.4892578125
0.5745	-0.0	-0.0	-0.0	-0.0	-0.0	-0.0	2.0350987911224365	2.56655502319336	-689.9029541015625	-0.0	-0.0	-0.0	-0.0	-0.0	-0.0	195969.28125	-21995.640625	-2025.4993896484373
0.5750000000000001	-0.0	-0.0	-0.0	-0.0	-0.0	-0.0	1.612078309059143	2.956240177154541	-696.7019653320312	-0.0	-0.0	-0.0	-0.0	-0.0	-0.0	197928.953125	-22154.279296875	-2058.90185546875
